<svg width="400" height="326" viewBox="0 0 400 326" fill="none" xmlns="http://www.w3.org/2000/svg">
<path d="M96.7999 2.06536C93.5999 4.46536 94.1332 21.3987 97.7332 23.532C99.3332 24.5987 100.667 24.5987 102.4 23.532C105.6 21.3987 106.4 5.53203 103.333 2.46536C100.667 -0.06797 99.8666 -0.201303 96.7999 2.06536ZM101.333 12.9987C101.333 16.9987 100.8 20.332 100.133 20.332C98.9332 20.332 97.4666 7.26536 98.5332 6.1987C100.4 4.33203 101.333 6.5987 101.333 12.9987Z" fill="#155946"/>
<path d="M58.1333 12.9993C55.3333 15.7993 55.3333 15.5326 60.1333 23.7993C65.3333 32.8659 68.2667 34.7326 72 30.9993C73.4667 29.5326 74.6667 27.9326 74.6667 27.2659C74.5333 26.7326 72.5333 22.9993 70.1333 18.9993C65.4667 11.1326 61.8667 9.26594 58.1333 12.9993ZM67.4667 21.7993C69.8667 26.4659 69.8667 28.4659 67.4667 27.5326C65.4667 26.7326 61.3333 19.1326 61.3333 16.3326C61.3333 13.9326 65.0667 17.2659 67.4667 21.7993Z" fill="#155946"/>
<path d="M130.667 17.1333C124.933 26.3333 124.533 28.4666 128 31.2666C132 34.6 134.8 32.7333 139.467 23.8C143.733 15.6666 143.067 12.0666 137.6 11.2666C135.467 10.8666 133.733 12.3333 130.667 17.1333ZM136.133 22.3333C133.067 28.4666 130.667 30.0666 130.667 25.9333C130.667 23.5333 134.133 17.6666 136.533 16.0666C139.2 14.2 139.067 16.4666 136.133 22.3333Z" fill="#155946"/>
<path d="M174 44.1993C160.8 54.1993 127.467 79.5327 100 100.333C49.3333 138.866 45.3333 142.066 45.3333 144.199C45.3333 146.066 49.3333 149.666 51.3333 149.666C52.4 149.666 59.3333 144.999 66.9333 139.266C74.5333 133.533 94.5333 118.466 111.333 105.666C128.267 92.866 154.8 72.5993 170.533 60.5993C186.267 48.7327 199.867 39.1327 200.8 39.5327C202.267 40.066 255.733 80.3327 308.133 120.333C318.133 128.066 337.6 142.733 351.2 152.999L375.867 171.666L376 242.599V313.666H369.067H362L362.4 304.333C362.8 297.266 362.4 294.066 360.667 291.533L358.533 288.199L329.333 288.599L300 288.999V283.666C300 278.866 300.8 277.399 307.733 270.599C313.067 265.399 316.4 262.999 318.8 262.999C333.2 262.999 349.867 250.066 354 235.666C356.4 227.799 356.133 218.599 353.467 215.933C352.667 215.133 348.4 214.599 344 214.599C325.333 214.866 308.667 230.333 307.867 248.466C307.6 252.599 306.667 255.399 304.267 257.933C302.4 260.066 300.533 261.666 300.133 261.666C299.733 261.666 299.467 254.066 299.733 244.866C300.133 228.466 300.267 227.799 304 223.133C311.867 213.266 314 200.066 309.733 187.666C307.067 180.333 297.867 169.666 294 169.666C292.667 169.666 288.933 172.333 285.867 175.666C273.6 188.466 272.8 209.266 284 223.266L288 228.199V258.999V289.666L284.8 288.866C277.6 287.133 272.4 295.666 278.533 298.999C280.133 299.799 294.667 300.333 316.267 300.333H351.333L350.933 306.999L350.4 313.666H200H49.6L49.0666 306.999L48.6666 300.333H153.333C233.067 300.333 258.533 299.933 259.733 298.733C261.867 296.599 261.733 291.666 259.467 289.799C258.133 288.733 249.6 288.333 231.867 288.333L206 288.599L205.6 255.666C205.467 236.866 205.867 220.733 206.667 217.933C207.333 215.133 210.667 210.066 214.4 206.199C220.267 200.066 221.467 199.399 228.267 198.599C246.8 196.733 261.333 180.733 261.333 162.333C261.333 157.799 260.667 153.533 259.733 152.599C258.8 151.666 254.667 150.999 250.267 150.999C231.733 150.999 215.733 165.933 213.733 185.133C213.2 190.599 212.133 192.999 209.2 195.799L205.333 199.533V195.266C205.333 189.266 202 181.799 197.067 176.733C194 173.533 192.933 171.133 192.533 166.333C191.867 157.933 188 149.666 181.733 143.399C174.667 136.333 167.6 133.266 157.333 132.599C146.267 131.933 144.533 133.533 144.8 144.199C145.067 153.666 148 160.199 154.933 167.933C161.867 175.399 168.933 178.999 178.133 179.933C184.4 180.599 186 181.399 190 185.799L194.667 190.999V222.999C194.667 240.599 194.4 254.999 194 254.999C191.867 254.999 186.667 247.399 186.667 244.333C186.667 225.933 168.667 208.199 149.867 207.799C139.733 207.666 138.267 209.533 138.933 220.999C140.133 239.799 153.467 253.533 172.533 255.799C179.333 256.599 180.533 257.266 186.533 263.666C193.867 271.399 195.067 274.333 194.4 282.866L194 288.333L152.933 288.733L112 288.999V258.599V228.199L116 223.266C127.2 209.266 126.4 188.466 114.133 175.666C111.067 172.333 107.333 169.666 106 169.666C102.133 169.666 92.6666 180.599 90.1333 187.799C86 200.066 88.1333 213.399 96 223.133C99.7333 227.799 99.8666 228.466 100.267 244.866C100.533 254.066 100.267 261.666 99.8666 261.666C99.4666 261.666 97.6 260.066 95.7333 258.066C93.3333 255.399 92.4 252.599 92.1333 248.466C91.3333 230.333 74.6666 214.866 56 214.599C51.6 214.599 47.3333 215.133 46.5333 215.933C43.8666 218.599 43.6 227.799 46 235.666C50.1333 250.066 66.8 262.999 81.2 262.999C83.6 262.999 86.9333 265.399 92.2666 270.599C99.2 277.399 100 278.866 100 283.666V288.999L70.6666 288.599L41.4666 288.199L39.3333 291.533C37.6 294.066 37.2 297.266 37.6 304.333L38 313.666H31.0666H24V242.599V171.666L29.3333 167.933C36.8 162.599 38.1333 159.799 34.5333 156.199C31.2 152.866 30.2666 153.266 20.6666 160.466L13.3333 165.933V239.799V313.666H9.06662C1.46662 313.666 -1.86672 318.466 2.66662 322.999C5.33328 325.666 7.59995 325.666 200 325.666C392.533 325.666 394.667 325.666 397.333 322.999C398.8 321.533 400 319.799 400 319.133C400 316.466 395.6 313.666 391.2 313.666H386.667V239.933V166.199L335.067 126.866C224.267 42.866 201.333 25.666 199.733 25.7993C198.8 25.7993 187.2 34.066 174 44.1993ZM205.467 33.666C208 35.7993 210.667 37.666 211.6 37.666C212.533 37.666 213.733 38.466 214.267 39.3993C214.8 40.466 217.067 42.3327 219.333 43.7993C221.467 45.1327 224.8 47.666 226.667 49.266C232.8 54.5993 245.333 64.3327 246 64.3327C246.4 64.3327 248 65.5327 249.6 66.9993C251.2 68.466 254.933 71.266 257.867 73.266C260.933 75.266 263.6 77.3993 264 77.7993C264.4 78.1993 271.6 83.7993 280 90.066C288.4 96.466 296 102.066 296.667 102.599C297.467 103.266 301.6 106.333 306 109.666C310.4 112.866 315.467 116.866 317.333 118.599C319.2 120.333 321.333 121.666 322.133 121.666C323.067 121.666 324 122.599 324.533 123.666C324.933 124.733 326 125.666 327.067 125.666C328 125.666 330.267 127.133 332 128.999C333.867 130.999 338.267 134.466 342 136.999C345.6 139.399 351.067 143.666 354 146.199C356.933 148.866 359.733 150.999 360.133 150.999C360.667 150.999 363.067 152.733 365.467 154.999C368 157.133 370.4 158.999 371.067 158.999C371.6 158.999 373.2 160.066 374.667 161.266C376.133 162.599 378.533 164.733 380 165.933C382.533 168.333 382.667 170.199 382.933 237.933C382.933 276.333 382.933 308.866 382.8 310.466C382.533 313.799 387.467 318.599 392 319.399C393.867 319.666 307.333 320.066 199.733 320.199C92 320.199 3.99995 319.799 3.99995 319.266C3.99995 318.599 5.73328 318.333 7.86662 318.733C10.8 319.133 12.2666 318.466 14.5333 315.666C17.3333 311.933 17.3333 311.533 17.3333 240.333V168.599L23.6 163.133C32.2666 155.666 34.6666 158.199 26.2666 166.066L20 171.799V242.733C20 311.933 20.1333 313.799 22.6666 316.333C26 319.666 35.3333 319.933 38.9333 316.733C40.8 314.999 41.3333 312.599 41.3333 304.066C41.3333 296.733 41.8666 293.666 43.0666 293.533C43.8666 293.533 56.9333 293.533 71.8666 293.666C102.667 293.799 104 293.399 104 284.333C104 275.266 89.0666 258.999 80.8 258.999C78.2666 258.999 73.3333 257.799 70 256.333C56.2666 250.466 49.0666 240.599 48.8 227.666L48.6666 219.666L54.4 219.266C63.7333 218.599 73.2 222.333 79.7333 229.533C85.8666 236.199 88 241.266 88.4 249.799C88.6666 253.799 89.8666 256.599 93.0666 260.466C101.467 270.466 104 266.733 104 244.066V227.666L99.3333 221.799C96.8 218.599 94 213.533 93.2 210.466C91.3333 203.399 92.2666 191.399 95.0666 186.333C96.2666 184.066 97.6 181.399 98.1333 180.199C98.9333 177.933 104.133 174.999 107.2 174.999C109.867 174.999 115.467 181.799 117.867 188.066C122.133 199.266 119.867 212.999 112 222.733L108 227.799V258.333C108 284.866 108.267 288.999 110.133 291.133C112.267 293.533 115.2 293.666 152.933 293.666C186.933 293.666 193.867 293.399 195.467 291.666C198.267 288.999 199.2 278.733 197.333 272.999C195.333 266.866 181.2 252.333 177.067 252.199C167.2 251.666 160 248.866 152.267 242.466C146.533 237.533 142.667 228.466 142.667 219.799C142.667 211.533 144 210.599 153.867 212.466C170.267 215.533 182.667 228.866 182.667 243.666C182.667 248.066 185.733 253.533 190.133 256.733C193.333 259.133 193.6 259.133 196.133 256.866C198.533 254.733 198.667 252.599 198.667 224.199C198.667 207.533 198.133 192.333 197.333 190.466C196.667 188.599 193.867 184.733 191.2 181.799C187.2 177.266 185.467 176.333 181.467 176.333C164.4 176.333 148 159.799 148 142.599C148 137.399 151.067 135.799 159.2 136.866C167.867 137.799 172.4 140.066 179.067 146.599C184.933 152.333 187.6 157.799 188.8 167.266C189.467 171.799 190.8 175.266 193.2 177.799C199.733 184.733 200.267 185.799 200.933 191.399C202.4 202.466 206.133 204.466 212.533 197.799C215.2 194.999 216.4 191.933 217.333 186.066C218.667 176.199 221.333 170.999 228.4 163.799C234.4 157.933 244.533 154.333 252.667 155.266C256.533 155.666 256.667 155.933 257.067 163.399C257.467 171.799 254.4 179.399 248 185.399C242.8 190.199 231.867 194.999 225.867 194.999C220.933 194.999 219.733 195.799 212.267 203.399C206.8 209.133 203.733 213.666 202.8 217.399C200.533 225.799 200.933 287.266 203.333 290.466C205.467 293.533 203.067 293.266 232.8 293.533C248.8 293.666 257.2 294.066 256.667 294.999C256.133 295.933 219.867 296.333 152.133 296.333C73.3333 296.333 48.1333 296.733 46.9333 297.933C44.5333 300.333 44.9333 313.666 47.6 316.599C49.6 318.866 56.1333 318.999 199.733 318.999C370.133 318.999 354.667 320.199 354.667 307.533C354.667 296.066 355.733 296.333 316 296.333C294.4 296.333 281.2 295.799 280.667 294.999C280.133 294.199 281.333 293.666 283.467 293.666C285.467 293.666 288.267 292.733 289.6 291.399C291.733 289.399 292 286.599 292 258.466V227.666L288 222.733C276.133 208.333 277.467 185.666 290.8 176.199L294.533 173.533L299.733 178.866C310.533 190.066 311.067 207.933 300.8 220.999C296.8 226.199 296.667 226.733 296 243.266C295.467 257.799 295.6 260.599 297.6 262.999C300.4 266.466 301.467 266.333 305.867 261.799C308.667 258.999 310.133 255.399 311.333 248.599C313.333 238.599 315.467 234.199 321.867 227.666C326.8 222.599 341.067 217.666 347.067 218.866C351.2 219.799 351.333 219.933 351.2 227.133C351.067 235.533 347.6 242.999 341.067 249.266C335.6 254.466 325.333 258.999 318.8 258.999C314.533 258.999 312.8 260.066 305.467 267.533C298.133 274.999 296.933 276.866 296.4 282.199C295.867 286.999 296.133 288.999 298 290.999C300.267 293.533 302.267 293.666 328.933 293.666H357.333V301.933C357.333 307.933 358.133 311.533 360 314.733C362.267 318.466 363.333 318.999 368.533 318.999C373.067 318.999 375.333 318.199 377.333 316.066C380 313.266 380 311.799 380 242.066V171.133L372.267 164.733C367.867 161.266 363.067 157.399 361.333 156.333C359.733 155.266 357.6 153.666 356.667 152.733C355.867 151.933 346.133 144.466 335.2 136.199C300.8 110.199 271.733 88.1993 260.667 79.666C254.8 75.1327 247.067 69.266 243.333 66.466C239.733 63.666 235.733 60.7327 234.667 59.9327C222.4 50.1993 205.2 37.666 204 37.666C203.333 37.666 202.667 36.9993 202.667 36.3327C202.667 32.7327 192.8 38.066 181.733 47.666C180.8 48.3327 177.333 51.1327 173.867 53.666C170.4 56.1993 164.133 60.9993 160 64.3327C155.733 67.666 150.933 71.266 149.2 72.3327C147.6 73.3993 143.2 76.7327 139.467 79.666C135.733 82.5993 123.067 92.1993 111.467 100.999C99.7333 109.799 86.4 119.933 81.6 123.666C76.8 127.266 71.6 131.266 70.1333 132.333C68.5333 133.399 63.8666 136.866 59.4666 139.933C55.2 143.133 51.2 145.399 50.5333 144.999C48.9333 143.933 60.2666 134.333 74.6666 124.466C77.2 122.733 80.4 120.066 81.6 118.599C82.9333 117.133 84 116.333 84 116.866C84 117.799 86.2666 116.199 91.4666 111.266C93.3333 109.666 95.0666 108.333 95.4666 108.333C95.8666 108.333 99.3333 105.799 103.2 102.599C107.2 99.5327 114.133 94.3327 118.667 90.9993C123.333 87.666 128.133 84.066 129.2 82.866C130.4 81.7993 133.467 79.3993 136 77.666C138.533 75.9327 142.533 72.9993 144.8 71.1327C147.067 69.266 150.267 66.7327 151.867 65.666C153.6 64.5993 156 62.7327 157.333 61.666C162.133 57.7993 166.133 54.866 178 46.066C184.667 41.1327 191.2 35.9327 192.667 34.5993C194.133 33.266 196.533 31.5327 198 30.9993C199.467 30.3327 200.8 29.7993 200.8 29.7993C200.933 29.666 203.067 31.3993 205.467 33.666Z" fill="#155946"/>
<path d="M154.133 141.132C147.867 147.265 157.2 163.932 170.933 171.132C176.8 174.199 180.8 174.332 183.467 171.799C189.333 165.932 180.667 149.265 168.133 142.599C160.667 138.465 157.067 138.065 154.133 141.132ZM165.067 144.999C173.467 148.599 179.467 156.065 181.867 165.932C182.8 170.199 181.6 170.599 174.533 168.065C165.067 164.865 158.133 157.132 156 147.532C155.067 143.532 155.333 142.999 157.467 142.999C158.933 142.999 162.267 143.932 165.067 144.999Z" fill="#155946"/>
<path d="M241.467 159.399C236.133 161.133 226.533 169.933 223.467 175.933C221.067 180.733 220.667 188.999 222.667 190.333C225.867 192.333 230.133 192.066 235.6 189.666C238.667 188.333 241.333 186.466 241.333 185.666C241.333 184.866 241.867 184.466 242.533 184.866C243.067 185.266 245.467 182.733 247.6 179.266C255.6 166.866 256.4 163.666 252.267 159.933C249.467 157.399 248 157.266 241.467 159.399ZM250.667 164.199C250.667 171.799 243.2 181.666 234.4 185.666C224 190.333 222.133 188.866 226.133 179.266C228.8 172.733 234.133 167.266 240.667 164.199C247.6 160.999 250.667 160.999 250.667 164.199Z" fill="#155946"/>
<path d="M103.6 180.599C96.2664 184.599 93.5997 204.866 98.9331 214.199C103.466 221.932 106 222.999 109.733 218.999C114.4 213.799 116 208.866 116 200.199C116 187.799 109.333 177.266 103.6 180.599ZM110.8 190.199C114.533 198.466 113.733 207.132 108.4 215.666C106.666 218.332 106.666 218.332 104 215.266C98.1331 208.199 97.5997 195.799 102.8 187.132C105.866 182.066 107.333 182.732 110.8 190.199Z" fill="#155946"/>
<path d="M290.8 181.533C287.2 185.133 284.4 190.733 283.333 196.6C281.333 207.133 290.133 224.333 295.733 220.867C300.133 218.067 304 208.333 304 200.067C304 191.533 302.133 186.733 296.933 181.933L293.6 178.733L290.8 181.533ZM300.133 194.067C301.733 200.067 300.933 206.333 297.733 213.133C295.067 218.6 293.2 218.867 290.4 213.933C285.6 205.8 285.733 195.4 290.8 187L293.6 182.467L296.133 185.533C297.467 187.133 299.333 191 300.133 194.067Z" fill="#155946"/>
<path d="M146.4 218.333C142.667 226.733 156 244.733 168.533 248.333C174.533 249.933 175.2 249.933 176.8 247.667C184.133 237.667 166.933 215 152 215C148.933 215 147.6 215.8 146.4 218.333ZM163.333 223.267C170.267 227.933 178.267 242.467 175.6 245.133C174.267 246.6 164 242.467 159.333 238.733C154.133 234.333 149.333 226.2 149.333 221.533C149.333 219 149.867 218.733 154.133 219.4C156.8 219.933 160.933 221.533 163.333 223.267Z" fill="#155946"/>
<path d="M53.7332 223.132C48.2665 228.732 55.9998 245.132 67.1998 251.666C74.6665 256.066 79.3332 256.599 82.7998 253.799C91.1998 246.999 74.7998 223.932 60.3998 222.066C57.1998 221.666 54.6665 222.066 53.7332 223.132ZM65.7332 227.799C74.2665 232.199 81.3332 241.666 81.3332 248.866C81.3332 251.799 81.0665 251.932 76.7998 250.999C66.5332 248.732 57.8665 239.932 55.4665 229.266C54.6665 226.066 54.9332 225.666 57.9998 225.666C59.8665 225.666 63.3332 226.599 65.7332 227.799Z" fill="#155946"/>
<path d="M334.667 223.667C332.8 224.733 330.133 226.067 328.667 226.733C324.8 228.6 318 237.533 316.133 243.267C312.8 253.267 317.867 258.067 327.467 254.333C330.667 253.133 333.333 251.533 333.333 250.867C333.333 250.2 334 249.667 334.667 249.667C336.8 249.667 342.533 243 345.467 237.4C348.4 231.8 348.8 225.667 346.4 223.267C344.267 221.133 338.8 221.267 334.667 223.667ZM344.533 229.267C342.133 239.933 333.467 248.733 323.2 251C318.933 251.933 318.667 251.8 318.667 248.867C318.667 238.867 331.6 225.8 341.733 225.667C345.067 225.667 345.333 226.067 344.533 229.267Z" fill="#155946"/>
<path d="M29.8668 40.8663C28.2668 44.8663 30.2668 47.6663 37.6001 51.9329C44.0001 55.6663 45.7334 56.1996 48.1334 54.9996C50.0001 53.9329 50.6668 52.4663 50.4001 49.9329C49.6001 43.3996 31.8668 35.6663 29.8668 40.8663ZM41.3334 45.9329C46.5334 48.9996 48.1334 50.9996 45.2001 50.9996C43.0668 50.9996 33.3334 45.3996 33.3334 44.0663C33.3334 42.1996 35.8668 42.8663 41.3334 45.9329Z" fill="#155946"/>
<path d="M84.6664 41.1327C63.9997 49.666 53.1997 70.1993 58.133 91.266C60.533 101.666 63.0664 105.666 67.1997 105.666C73.0664 105.666 73.9997 102.466 70.6664 94.3327C62.2664 73.666 75.4664 51.5327 97.3331 49.9327C106.933 49.266 112.666 51.1327 119.733 56.9993C125.333 61.7993 129.066 62.7327 131.733 60.066C134.533 57.266 133.466 54.066 128.666 49.7993C120.133 42.3327 113.733 39.9327 101.333 39.3993C93.0664 39.1327 88.5331 39.5327 84.6664 41.1327ZM118.266 47.5327C125.866 51.666 130.266 55.7993 128.8 57.266C128.4 57.7993 126.266 56.866 124.266 55.266C122.266 53.5327 117.333 50.7327 113.333 48.866C103.066 43.9327 91.0664 44.7327 81.5997 50.866C67.1997 60.066 60.2664 78.9993 65.9997 93.3993C69.0664 100.866 67.8664 103.533 64.2664 97.666C61.8664 93.9327 61.333 90.866 61.333 81.9327C61.333 64.7327 67.0664 54.9993 82.1331 46.866C87.8664 43.7993 89.9997 43.266 99.9997 43.5327C109.733 43.666 112.266 44.1993 118.266 47.5327Z" fill="#155946"/>
<path d="M20.1331 78.8654C16.9331 84.8654 21.1997 87.3987 33.3331 86.7321C41.3331 86.3321 44.5331 83.5321 41.8664 79.2654C40.6664 77.5321 38.2664 76.8654 30.9331 76.5987C22.6664 76.3321 21.3331 76.5987 20.1331 78.8654ZM38.6664 81.6654C38.6664 82.3321 35.3331 82.9987 31.3331 82.9987C27.3331 82.9987 23.9997 82.3321 23.9997 81.6654C23.9997 80.8654 27.3331 80.3321 31.3331 80.3321C35.3331 80.3321 38.6664 80.8654 38.6664 81.6654Z" fill="#155946"/>
<path d="M37.3333 111.399C31.7333 114.732 30 116.466 30 118.866C30 124.866 33.8667 125.399 42.4 120.732C50.2667 116.466 52.4 112.732 49.3333 108.866C46.9333 106.199 45.4667 106.466 37.3333 111.399ZM46.6667 113.399C46.6667 114.866 34.8 120.866 33.8667 119.932C32.8 118.866 35.6 116.199 40.6667 113.532C44.5333 111.532 46.6667 111.399 46.6667 113.399Z" fill="#155946"/>
</svg>
