<svg width="32" height="33" viewBox="0 0 32 33" fill="none" xmlns="http://www.w3.org/2000/svg">
<path d="M16 18.3892C16.8284 18.3892 17.5 17.7193 17.5 16.893C17.5 16.0667 16.8284 15.3969 16 15.3969C15.1716 15.3969 14.5 16.0667 14.5 16.893C14.5 17.7193 15.1716 18.3892 16 18.3892Z" fill="black"/>
<path d="M16 10.4096C16.8284 10.4096 17.5 9.73973 17.5 8.91342C17.5 8.0871 16.8284 7.41724 16 7.41724C15.1716 7.41724 14.5 8.0871 14.5 8.91342C14.5 9.73973 15.1716 10.4096 16 10.4096Z" fill="black"/>
<path d="M16 26.3688C16.8284 26.3688 17.5 25.699 17.5 24.8726C17.5 24.0463 16.8284 23.3765 16 23.3765C15.1716 23.3765 14.5 24.0463 14.5 24.8726C14.5 25.699 15.1716 26.3688 16 26.3688Z" fill="black"/>
</svg>
